<svg width="1445" height="790" viewBox="0 0 1445 790" fill="none" xmlns="http://www.w3.org/2000/svg">
<line x1="127.5" y1="788" x2="127.5" y2="1.79456e-08" stroke="#0028FD"/>
<line x1="383.5" y1="790" x2="383.5" y2="1.79456e-08" stroke="#0028FD"/>
<line x1="511.5" y1="790" x2="511.5" y2="1.79456e-08" stroke="#0028FD"/>
<line x1="639.5" y1="790" x2="639.5" y2="1.79456e-08" stroke="#0028FD"/>
<line x1="767.5" y1="790" x2="767.5" y2="1.79456e-08" stroke="#0028FD"/>
<line x1="895.5" y1="790" x2="895.5" y2="1.79456e-08" stroke="#0028FD"/>
<line x1="1023.5" y1="790" x2="1023.5" y2="1.79456e-08" stroke="#0028FD"/>
<line x1="1151.5" y1="790" x2="1151.5" y2="1.79456e-08" stroke="#0028FD"/>
<line x1="1279.5" y1="790" x2="1279.5" y2="1.79456e-08" stroke="#0028FD"/>
<line x1="1407.5" y1="790" x2="1407.5" y2="1.79456e-08" stroke="#0028FD"/>
<line x1="255.5" y1="788" x2="255.5" y2="1.79456e-08" stroke="#0028FD"/>
<line y1="71.5" x2="1445" y2="71.5" stroke="#0028FD"/>
<line y1="199.5" x2="1445" y2="199.5" stroke="#0028FD"/>
<line y1="327.5" x2="1445" y2="327.5" stroke="#0028FD"/>
<line y1="455.5" x2="1445" y2="455.5" stroke="#0028FD"/>
<line y1="583.5" x2="1445" y2="583.5" stroke="#0028FD"/>
<line y1="711.5" x2="1445" y2="711.5" stroke="#0028FD"/>
</svg>
